<?xml version="1.0" encoding="UTF-8"?><svg id="Layer_1" xmlns="http://www.w3.org/2000/svg" viewBox="0 0 1187.8 191.12"><defs><style>.cls-1{fill:#f7f4ef;}.cls-1,.cls-2,.cls-3{stroke-width:0px;}.cls-2{fill:#f9f7ec;}.cls-3{fill:#fefefe;}</style></defs><path class="cls-1" d="M245.17,36.95c-8.67,14.6-14.29,30.37-17.95,46.89-2.6,11.75-2.92,23.6-1,35.46.97,5.97,2.99,11.56,7.74,15.73,1.88,1.65,3.11,3.7,4.6,6.54-7.66-2.28-14.34-.47-21.07,1.5-4.01,1.17-8.18,1.87-12.31,2.52-2.21.35-4.32-.27-2.54-3.15,9.04-14.58,4.05-28.53-2.52-41.9-5.76-11.71-15.27-20.85-23.82-30.59-3.69-4.2-7.04-8.71-10.47-13.13-2.94-3.79-6.12-4.04-9.82-1.06-5.4,4.34-6.88,9.52-5.41,16.32,3.05,14.18,7.06,28.13,9.46,42.47.96,5.74.08,11.48,1.4,17.24,1.48,6.49,3.91,12,9.44,15.79,1.86,1.27,2.96,2.62,2.08,4.75-.9,2.16-2.63,1.5-4.48,1.13-8.07-1.61-15.5,2.04-23.23,3.24-2.64.41-5.18.61-7.8.46-.08-.39-.31-.85-.19-.99,10.88-12.21,6.21-21.73,1.14-35.8-.17-.48-.51-.97-.9-1.27-6.29-4.78-11.58,1.42-17.42,1.85-3.34.24-4.06,4.2-3.87,7.68.58,10.91,5.26,22.19,14.51,33.78-22.6,1.16-43.01,10.02-64.44,14.56-1.04.22-2.14.69-3.02-.06-1.18-1.02.04-1.83.51-2.67,2.08-3.76-.77-6.1-3.14-7.29-5.04-2.54-7.99-6.63-10.68-11.21-2.15-3.66-4.98-6.08-9.51-3.81-4.32,2.16-5.07,5.43-3.9,10.11,1.49,5.95,5.56,10.05,8.9,14.7,3.85,5.36,2.69,8.63-3.44,11.28-2.36,1.02-5.97-.65-7.11,3.08h-9.51c-.06-5.1,1.39-10.77-5.78-12.83-1.52-.44-1.72-2.35-1.12-4.12,1.78-5.19,0-9.63-3.27-13.64-1.22-1.5-3.2-2.9-3.12-4.76.33-7.87-4.49-14.62-3.96-22.79.47-7.28-1.81-14.8-8.12-20v-20.06c4.68-2.97,7.42-8.22,12.99-10.26,16.99-6.24,33.59-8.56,49.55,2.93,9.83,7.08,13.85,19.14,10.28,30.73-2.1,6.82-5.27,13.01-9.72,18.51-1.52,1.88-1.79,3.01-.01,4.83,6.62,6.79,13.09,13.72,19.63,20.59.6.64,1.23,1.27,1.94,1.78,7.05,5.07,11.47,3.38,13.71-4.98,3.24-12.1-1.06-22.85-5.93-33.42-3.04-6.61-5.36-12.61-3.02-20.47,3.02-10.16-5.65-25.53-15.78-30.97-2.24-1.2-4.65-2.11-3.72-5.36.89-3.12,3.55-2.47,5.7-2.36,7.01.38,13.65-.67,19.75-4.36.59-.36,1.35-.87,1.93-.77,2.9.51,6.1-3.03,8.47-.2,2.46,2.93-.83,5.54-2.06,7.99-4.33,8.6-1.84,16.53,2.31,24.08,5.18,9.4,5.47,9.28,15.68,5.78,1.99-.68,4-1.34,5.99-2.04,2-.71,3.31-2.07,3.35-4.26.21-10.77.56-21.51-8.9-29.5-3.68-3.11-3.18-5.16,1.58-6.32,8.31-2.03,16.74-3.57,25.15-5.16,12.87-2.43,25.78-4.7,38.65-7.12,3.62-.68,6.05-1.02,4.97,4.29-1.48,7.28,1.57,13.37,6.65,18.52,2.69,2.73,5.38,5.48,8.57,8.72,3.5-8.76,8.29-16.27,5.84-25.62-.79-3.03-2.76-5.24-4.28-7.77-.59-.98-2.28-1.6-1.42-3.03.74-1.23,2.24-.6,3.42-.71,11.31-1.06,22.62-2.11,33.92-3.17-.65,1.05-.65,2.1,0,3.15ZM31.79,126.71c6.79,0,11.69-2.49,17.67-8.78,4.55-4.78,4.34-9.49-.09-14.31-4.71-5.12-9.77-2.47-15.1-1.61-11.61,1.87-12.46,10.4-9.99,18.85,1.17,3.99,3.3,6.61,7.5,5.85Z"/><path class="cls-2" d="M617.15,0c-.02,1.94,1.63,1.98,2.86,2.53,8.81,3.98,13.67,11.3,14.83,20.38.96,7.52-3.4,13.72-8.49,19.08-2.54,2.68-5.34,5.13-7.79,7.88-4.25,4.78-4.85,9-1.1,13.79,3.99,5.1,8.45,9.93,14.03,13.42,5.83,3.64,9.71,2.47,12.84-3.67,1.27-2.49,2.69-5.02,3.34-7.69.88-3.6,3.26-5.57,6.38-6.26,2.81-.62,5.06,1.35,6.32,3.83,1.57,3.09,2.33,6.53-.32,9.35-4.94,5.26-7.52,11.84-10.57,18.14-2.63,5.42-1.38,9.01,3.78,12.41,2.93,1.93,6.01,3.62,8.98,5.49,1.8,1.13,2.85,2.93,2.2,4.92-.8,2.48-2.79.97-4.44.86-9.47-.59-18.92-.74-28.4.17-12.15,1.17-24.23,2.92-36.38-1.31-21.92-7.62-32.76-38.75-13.19-56.47,5.6-5.07,8.21-9.9,4.21-17.33-7.64-14.19,1.01-35.53,16.41-38.82.29-.06.5-.46.75-.71,3.17,0,6.34,0,9.51,0,.7,1.08,1.41,1.09,2.11,0h2.11ZM619.49,98.86c1.42-.46,3.53-.43,4.4-2.61.88-2.21-.27-3.91-1.86-4.98-9.03-6.02-16.02-14-22.26-22.72-1.14-1.59-1.94-2.85-3.94-.67-4.59,4.99-5.33,13.61-1.8,19.47,5.8,9.6,15.51,10.35,25.46,11.51ZM617.14,23.67c.15-2.38.28-5.45-3.1-6.51-3-.94-5.9-.13-8.22,2.14-3.39,3.33-4.82,12.12-2.55,16.21,1.23,2.21,3.19,4.5,5.71,2.49,4.36-3.49,8.47-7.46,8.16-14.33Z"/><path class="cls-1" d="M1187.8,102.42c-2.03,0-4,1.44-4.12,2.77-.42,4.99-5.86,6.53-6.92,11.21-.76,3.33-7.16,3.61-9.65.84-3.72-4.14-6.48-9.1-11.17-12.42-2.68-1.89-5.54-3.03-8.7-3.41-3.46-.41-6.94-.36-7.83,4.09-.78,3.89-.37,7.32,4.04,9.1,11,4.42,18.6,12.75,25.63,21.93,4.16,5.44,4.72,11.37,3.62,17.45-.76,4.2-.99,7.92,1.27,11.62,1.14,1.87,1.24,3.43-1.66,3.32-2.26-.08-3.43,1.54-4.8,2.87-10.92,10.6-23.48,13.15-37.14,6.87-12.02-5.53-23.36-12.74-38.08-13.14,4.25-4.7,9.3-6.86,11.92-11.63,1.63-2.98,3.07-5.89,3.27-9.3.19-3.18,1.08-6.49,4.39-6.98,3.15-.46,4.36,2.65,5.47,5.37,4.5,11.04,13.22,16.56,25.01,16.51,3.72-.01,5.98-1.59,7.53-4.63,1.7-3.31,1.27-6.52-.98-9.38-2.41-3.08-5.61-5.24-8.89-7.34-7.24-4.64-14.17-9.58-18.78-17.19-5.81-9.6-6.88-19.3-1.45-29.35,5.37-9.94,14.17-14.38,25.07-14.48,15.3-.13,27.9,6.6,39.01,16.58,1.17,1.05,2.14,2.39,3.94,2.36v6.34Z"/><path class="cls-3" d="M615.03,0c-.7,1.09-1.41,1.08-2.11,0h2.11Z"/><path class="cls-2" d="M422.67,119.76c1.68-5.03,4.2-8.38,5.48-12.35,3.29-10.25,2.36-20.6.62-30.71-1.83-10.66-1.87-21.28-1.8-31.96.04-6.16-.4-12.26-2.03-18.19-1.56-5.7-5.84-9.16-9.88-8.56-3.8.56-7.2,5.65-7.14,11.01.16,15.58,2.04,31.06,2.89,46.59.44,8.04,1.41,16.06,1.32,24.13-.08,7.32,2.3,13.4,9.74,18.06-12.59,2.93-24.76.28-37.42,4.1,3.39-5.75,5.89-10.45,6.99-15.84,1.41-6.88-.08-13.25-2.65-19.41-1.38-3.32-4.17-5.3-8.12-3.82-2.58.97-5.24.7-7.84.55-4.14-.25-6,1.97-6.05,5.59-.15,11.51-1.85,23.43,7.78,33.16-12.46-1-24.26,3.4-37.42,2.31,11.42-9.15,12.03-20.23,8.68-32.61-2.87-10.64-4.96-21.47-4.58-32.64.1-2.85.82-5.53,1.16-8.3,1.27-10.38-4.05-17.72-10.98-24.43-1.4-1.35-4.07-2.4-3.24-4.91.72-2.17,3.37-1.64,5.12-2.04,3.56-.82,7.26-1.5,10.89-1.44,8.44.13,16.72-.74,26.16-3.46-3.71,5.58-7.25,9.78-8.26,15.4-1.46,8.13-.63,16.01,1.3,23.89.17.67.29,1.53.76,1.93,5.21,4.56,11.42,1.88,17.15,1.95,4.07.05,4.91-3.88,5.43-7.29,1.67-10.96-.04-20.71-8.97-28.52-4-3.51-3.19-5.19,1.96-6.39,8.04-1.87,16.3-2.01,24.45-2.75,10.47-.96,21.03-.8,31.55-1.24,3.13-.13,6.24-.88,9.38-.95,2.97-.07,5.77.86,6.28,4.35,1.7,11.59,8.79,20.46,14.89,29.84,1.81,2.78,3.68,5.51,5.76,8.63,3.89-10.26,10.07-19.17,12.4-29.79.78-3.53.62-7,.54-10.47-.09-3.79.95-5.21,5.14-6.04,8.91-1.78,17.91.45,26.76-1.52,2.38-.53,2.05,1.84,1.65,3.36-4.4,16.58-5.56,33.49-4.88,50.53.66,16.59,2.89,33.04,5.87,49.37.64,3.53.39,5.34-3.81,5.22-7.21-.2-14.44-.05-21.66-.06-2,0-4.42.16-2.67-3.03,5.9-10.8,4.25-22.03,1.79-33.22-.78-3.53-.47-7.34-2.97-11.41-2.81,8.78-5.8,16.86-7.92,25.16-1.72,6.74-4.95,13.17-4.69,20.39.08,2.13-1.32,3.07-3.41,3.17-2.32.1-3.34-1.02-4.11-3.18-3.47-9.75-7.11-19.43-10.73-29.12-1.96-5.26-4.02-10.48-5.97-15.74-.58-1.56-1.37-3.32-3.06-3.11-1.88.23-1.35,2.36-1.12,3.53,2.28,11.37-.56,23.17,2.98,34.45,1.16,3.71,2.56,7.23,4.59,10.52,1.28,2.08,1.99,3.9-1.67,4.01-1.02.03-2.03.67-3.05.7-9.57.3-19.22-.95-29.36,2.61Z"/><path class="cls-1" d="M892.96,126.72c8.17-6.51,12.49-15.53,13.43-25.39.89-9.42,1.83-19.27-2.22-28.47-.67-1.52.16-2.29.99-3.2,10.59-11.61,9.99-24.33,3.84-37.65-.71-1.54-2.6-3.24-1.62-4.75,1.37-2.1,3.5-.09,5.28.15,23.71,3.17,47.42,6.37,71.12,9.59.85.12,2.01.2,2.46.75,5.95,7.31,14.56,4.02,21.94,5.41,4.94.93,10.03,1.48,15.16,1.39,1.53-.03,5.47.74,2.41,3.66-8.84,8.42-7.69,18.55-5.77,28.94.72,3.91,1.6,7.78,2.57,12.43,7.01-9.19,16.47-16.23,15.35-29.44-.52-6.12,2.59-8.88,8.17-8.29,5.89.62,11.68,2.05,17.54,2.97,2.43.38,3.19,1.49,1.95,3.54-5.77,9.53-3.56,19.32-.85,29.02.59,2.1-.79,5.34,1.72,6.16,3.1,1.01,3.28-2.99,5.14-4.4,3.39-2.57,5.89-6.06,8.16-9.58,3.53-5.46,4.29-11.35,1.28-17.42-.53-1.06-1.46-2.23-.39-3.38,1.09-1.17,2.29-.18,3.4.21,2.48.88,4.95,1.77,7.42,2.7,6.45,2.42,12.96,4.38,19.99,3.87,1.45-.11,3.37-.72,4.21,1.2.86,1.98-.5,3.34-1.81,4.55-5.97,5.5-10.95,11.84-15.76,18.32-7.23,9.75-13.01,20.39-18.71,31.06-3.39,6.35-6.4,12.93-10.17,19.05-3.1,5.04-3.11,10.32-2.88,15.76.18,4.13-1.21,5.5-5.29,3.89-7.07-2.79-14.34-4.59-22.06-4.17-3.58.19-4-1.32-1.87-4.07,5.85-7.59,7-16.07,5.21-25.37-.84-4.36-.58-8.93-2.19-14.27-8,10.62-15.97,20.04-15.13,33.76.45,7.31-.27,7.27-7.39,5.38-5.54-1.47-11.34-1.96-17.04-2.74-1.91-.26-3.68-.65-5.63-1.82,10-6.35,6.69-16.12,6.47-24.9-.07-2.72-.56-5.55-.61-8.34-.32-16.98-1.48-33.87-4.17-50.66-1.06-6.63-4.9-11.97-7.53-17.87-.81-1.82-2.05-1.92-3.88-1.17-3.66,1.51-5.73,3.87-5.59,7.98.08,2.28.17,4.61-.18,6.85-1.04,6.59-1.09,6.49-7.22,3.87-10.9-4.66-22.63-5.86-34.15-7.92-4.58-.82-6.12,1.3-6.08,5.94.12,13.04-.05,13.04,13.07,13.04q9.84,0,7.98,9.59c-1.05,5.48-2.1,10.97-2.96,16.48-.43,2.71-1.33,3.93-4.14,2.5-3.27-1.67-6.64-3.15-9.87-4.9-4.74-2.57-8.36-1.02-9.11,4.35-.41,2.93-.23,5.98-.08,8.96.12,2.4,1.64,3.7,4.01,4.19,6.33,1.3,12.62,2.84,18.98,3.97,4.49.8,8.72-.43,12.46-3.03,2.01-1.4,3.87-2.27,6.22-.65,2.53,1.74.96,3.75.56,5.67-1.13,5.49-2.52,10.92-4.75,16.08-2.21,5.11-4.53,6.13-9.26,3.66-5.34-2.8-11.26-2.39-16.9-3.37-10.31-1.79-20.74-2.98-31.13-4.24-2.59-.31-5.45-.53-7.84.26-2.7.9-4.35-.15-6.22-1.45v-4.2Z"/><path class="cls-2" d="M724.68,8.73c12.5,1.26,24.81.41,36.91,2.59,3.61.65,7.3.79,10.92,1.41,17.19,2.98,26,13.33,25.29,29.97-.27,6.3-2.87,11.94-6.63,16.9-2.05,2.69-1.93,4.58.6,6.68,11.37,9.45,11.42,21.12,5.74,33.29-5.27,11.31-14.83,16.29-27.17,17.83-12.87,1.6-25.55-1.37-38.32-.24-1.35.12-2.77-.29-4.13-.58-8.68-1.85-8.82-1.97-3.09-9.09,3.83-4.76,5.66-9.93,5.47-16.02-.22-6.83-.38-13.63-.93-20.46-.8-9.95.02-19.86,2.66-29.69,3.15-11.75,1.66-22.93-7.31-32.58ZM750.3,84.32c0,1.58,0,3.16,0,4.74,0,7.09.98,8.04,8.3,8.08,2.81.02,5.65-.25,8.42.06,5.21.58,9.4-1.2,10.91-6.08,1.59-5.12,2.28-10.57-1.92-15.36-3.86-4.4-9.04-4.71-14.21-5.66-7.94-1.47-11.45,1.09-11.5,8.96,0,1.75,0,3.51,0,5.27ZM763.77,48.57c1.69-.14,3.75-.19,5.86-.54,4.44-.74,6.27-2.8,6.13-7.42-.14-4.62-2.89-5.36-6.48-5.85-3.27-.44-6.5-1.27-9.75-1.89-4.38-.85-6.65,1.06-7.11,5.42-.75,7.08,2.64,10.28,11.35,10.29Z"/><path class="cls-2" d="M892.96,126.72v4.2c-1.26.55-2.6,1.65-3.93.55-6.75-5.58-15.08-3.76-22.71-4.59-8.02-.87-10.47-3.17-9.45-11.13.6-4.7-1.13-8.98-3.45-12.98-1.84-3.18-3.82-6.29-5.73-9.44-1.62-2.66-3.34-4.76-7.1-3.94-3.9.85-3.66,3.55-3.68,6.43-.03,4.37-1.55,8.61-1.05,13.06.52,4.64,2.03,8.83,4.86,12.55.58.76,1.73,1.56.69,2.66-.7.74-1.63.05-2.47-.02-10.97-.94-21.35-5.77-33.04-4.63,1.66-5.17,5.92-8.18,7.69-12.72,3.76-9.65,4-19.41,1.39-29.32-1.27-4.81-1.18-8.99,1-14.04,6.18-14.27,7.97-29.04-.24-43.47-.43-.76-.78-1.57-1.11-2.39-.12-.31-.09-.68-.17-1.53,7.82.76,15.55,1.61,23.27,2.24,10.2.82,20.47,1.68,30.21,5.9,11.56,5,20.47,17.71,20.89,30.41.27,8.24-1.41,15.53-6.2,22.32-2.34,3.31-5.55,5.36-8.65,7.53-4.35,3.03-5.78,7.37-3.63,11.46,5.11,9.71,9.35,20.1,17.8,27.74,1.47,1.33,3.05,2.35,4.81,3.17ZM867.6,55.84c.03-7.99-1.5-10.32-9.06-12.5-3.66-1.06-7.5-1.81-11.29-2.03-4.38-.26-6.81,2.35-7.1,6.73-.23,3.48.07,6.94-.85,10.44-.64,2.44.51,5.18,3.31,5.81,5.56,1.25,11.08,3.15,16.99,1.57,7.16-1.93,7.98-2.79,8-10.01Z"/><path class="cls-2" d="M245.17,36.95c-.65-1.05-.65-2.1,0-3.15,15.53-4.48,31.52-5.9,47.52-7.52,8.3-.84,16.51-2.76,24.71-4.42,2.44-.49,4.9-1.57,7.02.16,2.31,1.9.47,4.29-.03,6.36-1.05,4.33-1.4,8.52-.24,12.95.63,2.39,1.39,5.57-.9,7.46-2.24,1.85-4.7-.2-6.82-1.14-12.86-5.66-15.27-3.98-14.21,10,1.41,18.61,3.22,37.19,5.15,55.75.55,5.27,4.81,7,7.3,10.4.99,1.36,3.43,2.18,2.82,4.07-.67,2.07-3.05,1.87-4.99,2.01-9.41.67-18.82,1.43-28.23,2.05-1.08.07-2.64.75-3.28-.69-.45-1.01.35-2.04,1.09-2.78,6.2-6.25,5.51-14.31,3.65-21.33-3.01-11.3-2.93-22.66-3.63-34.07-.33-5.38-.98-10.82-2.29-16.03-2.07-8.25-7.55-10.08-14.53-5.29-2.31,1.58-4.45,3.4-6.71,5.05-1.67,1.22-3.38,3.05-5.61,1.75-1.93-1.13-2.46-3.31-2.48-5.52-.03-2.64.33-5.34-.16-7.89-.62-3.27-1.94-6.4-5.14-8.2Z"/></svg>